# xmcd
# Copyright (C) 1995-1998 Ti Kan
#
# Track frame offsets:
#       150
#       18202
#       35086
#
# Disc length: 728 seconds
#
# Revision: 0
# Processed by: cddbd v1.5.2PL0 Copyright (c) Steve Scherf et al.
# Submitted via: CD-Import v1.0
#
DISCID=1b02d603
DTITLE=Fate - Loneliness (Single)
DYEAR=2009
DGENRE=
TTITLE0=Loneliness (Radio Single)
TTITLE1=Fear
TTITLE2=Loneliness (Remix)
EXTD=
EXTT0=
EXTT1=
EXTT2=
PLAYORDER=
